<?xml version="1.0" encoding="UTF-8" standalone="no"?>
<svg
   fill="currentColor"
   class="bi bi-mastodon"
   viewBox="0 0 16 16"
   version="1.1"
   id="svg1"
   sodipodi:docname="mastodon-icon-1-color-black-rgb.svg"
   inkscape:version="1.4.2 (ebf0e940d0, 2025-05-08)"
   xmlns:inkscape="http://www.inkscape.org/namespaces/inkscape"
   xmlns:sodipodi="http://sodipodi.sourceforge.net/DTD/sodipodi-0.dtd"
   xmlns="http://www.w3.org/2000/svg"
   xmlns:svg="http://www.w3.org/2000/svg">
  <defs
     id="defs1" />
  <sodipodi:namedview
     id="namedview1"
     pagecolor="#ffffff"
     bordercolor="#000000"
     borderopacity="0.25"
     inkscape:showpageshadow="2"
     inkscape:pageopacity="0.0"
     inkscape:pagecheckerboard="0"
     inkscape:deskcolor="#d1d1d1"
     inkscape:zoom="15.615983"
     inkscape:cx="9.605543"
     inkscape:cy="3.6821248"
     inkscape:window-width="1270"
     inkscape:window-height="755"
     inkscape:window-x="0"
     inkscape:window-y="0"
     inkscape:window-maximized="0"
     inkscape:current-layer="svg1" />
  <path
     d="M11.19 12.195c2.016-.24 3.77-1.475 3.99-2.603.348-1.778.32-4.339.32-4.339 0-3.47-2.286-4.488-2.286-4.488C12.062.238 10.083.017 8.027 0h-.05C5.92.017 3.942.238 2.79.765c0 0-2.285 1.017-2.285 4.488l-.002.662c-.004.64-.007 1.35.011 2.091.083 3.394.626 6.74 3.78 7.57 1.454.383 2.703.463 3.709.408 1.823-.1 2.847-.647 2.847-.647l-.06-1.317s-1.303.41-2.767.36c-1.45-.05-2.98-.156-3.215-1.928a4 4 0 0 1-.033-.496s1.424.346 3.228.428c1.103.05 2.137-.064 3.188-.189zm1.613-2.47H11.13v-4.08c0-.859-.364-1.295-1.091-1.295-.804 0-1.207.517-1.207 1.541v2.233H7.168V5.89c0-1.024-.403-1.541-1.207-1.541-.727 0-1.091.436-1.091 1.296v4.079H3.197V5.522q0-1.288.66-2.046c.456-.505 1.052-.764 1.793-.764.856 0 1.504.328 1.933.983L8 4.39l.417-.695c.429-.655 1.077-.983 1.934-.983.74 0 1.336.259 1.791.764q.662.757.661 2.046z"
     id="path1" />
  <path
     style="fill:#666666;stroke-width:0.064037;fill-opacity:1"
     d="M 6.2756214,15.910962 C 4.3426017,15.674291 3.2034058,15.253373 2.426469,14.488751 1.0376264,13.121922 0.51362064,10.872274 0.51340142,6.2756214 0.51331101,4.3798942 0.64396452,3.5991514 1.1253411,2.6188687 1.6309327,1.5892741 2.4053209,0.89239189 3.3889373,0.58182838 4.3963577,0.26374911 6.340237,0.03232943 8.0046191,0.03232943 c 1.6643819,0 3.6082619,0.23141968 4.6156819,0.54949895 1.59258,0.50283532 2.622262,2.00190392 2.811316,4.09286922 0.102472,1.1333575 -0.08903,4.1732575 -0.316005,5.0161657 -0.10023,0.3722267 -0.56469,0.9651307 -1.034248,1.3202667 -0.89461,0.67661 -1.96291,1.047721 -3.515267,1.221147 -1.7402206,0.194415 -3.4807424,0.129272 -5.2100762,-0.194999 -0.2768482,-0.05191 -0.5327159,-0.09439 -0.5685947,-0.09439 -0.096353,0 -3.926e-4,0.721575 0.1490935,1.121113 0.2162379,0.577947 0.7814855,1.022343 1.510427,1.187493 0.9680126,0.219315 2.6201922,0.193873 3.7762234,-0.05815 l 0.521572,-0.113705 0.04534,0.604743 c 0.03571,0.476345 0.02695,0.616656 -0.04129,0.660851 -0.169946,0.110065 -1.098559,0.378582 -1.6445932,0.47555 -0.683937,0.121457 -2.1827988,0.16924 -2.8285724,0.09017 z M 4.9308454,7.4738738 c 0,-2.2492908 0.00267,-2.2970566 0.1440831,-2.5774873 C 5.3240243,4.4024142 5.9350743,4.24125 6.5077538,4.5184794 6.7176739,4.6201 6.8179914,4.7260198 6.944212,4.9793114 7.1053111,5.3025951 7.1081018,5.3325148 7.1081018,6.7364531 V 8.1647115 H 7.9726007 8.8370995 L 8.8374703,7.0280556 C 8.8380454,5.2652122 8.9584086,4.796454 9.4787389,4.5306144 10.053397,4.2370188 10.674894,4.3952188 10.93431,4.9011247 c 0.141501,0.2759524 0.144083,0.3220544 0.144083,2.5727491 v 2.2917616 h 0.864499 0.864499 l -7.6e-4,-2.4494135 C 12.805815,4.6891687 12.790363,4.5330795 12.468368,3.8993639 12.252087,3.4737011 11.742978,3.020709 11.283416,2.845022 10.811982,2.6647968 9.9819669,2.6497892 9.4921668,2.8126341 9.0226242,2.9687441 8.594265,3.3332788 8.2927854,3.8333094 8.1519041,4.0669737 8.0222293,4.257268 8.0046191,4.2561856 7.987009,4.2551032 7.8349251,4.0398831 7.6666545,3.7779186 7.1649871,2.996919 6.6316811,2.7112815 5.6672704,2.7070532 4.8683712,2.7035506 4.4551852,2.8658381 3.9326687,3.3883546 3.2286488,4.0923745 3.1391304,4.5783312 3.1383361,7.7004436 l -5.254e-4,2.0651918 h 0.8965174 0.8965173 z"
     id="path2" />
</svg>
