<?xml version="1.0" encoding="UTF-8" standalone="no"?>
<svg
   xmlns:sketch="http://www.bohemiancoding.com/sketch/ns"
   xmlns:dc="http://purl.org/dc/elements/1.1/"
   xmlns:cc="http://creativecommons.org/ns#"
   xmlns:rdf="http://www.w3.org/1999/02/22-rdf-syntax-ns#"
   xmlns:svg="http://www.w3.org/2000/svg"
   xmlns="http://www.w3.org/2000/svg"
   xmlns:sodipodi="http://sodipodi.sourceforge.net/DTD/sodipodi-0.dtd"
   xmlns:inkscape="http://www.inkscape.org/namespaces/inkscape"
   version="1.1"
   x="0px"
   y="0px"
   viewBox="0 0 586 559"
   style="enable-background:new 0 0 586 559;"
   xml:space="preserve"
   id="svg106"
   sodipodi:docname="gitlab-icon-1-color-black-rgb.svg"
   inkscape:version="1.0.1 (3bc2e813f5, 2020-09-07)"><metadata
   id="metadata112"><rdf:RDF><cc:Work
       rdf:about=""><dc:format>image/svg+xml</dc:format><dc:type
         rdf:resource="http://purl.org/dc/dcmitype/StillImage" /></cc:Work></rdf:RDF></metadata><defs
   id="defs110" /><sodipodi:namedview
   pagecolor="#ffffff"
   bordercolor="#666666"
   borderopacity="1"
   objecttolerance="10"
   gridtolerance="10"
   guidetolerance="10"
   inkscape:pageopacity="0"
   inkscape:pageshadow="2"
   inkscape:window-width="1993"
   inkscape:window-height="1185"
   id="namedview108"
   showgrid="false"
   inkscape:zoom="1.332737"
   inkscape:cx="169.5698"
   inkscape:cy="279.5"
   inkscape:window-x="325"
   inkscape:window-y="166"
   inkscape:window-maximized="0"
   inkscape:current-layer="logo_art"
   inkscape:document-rotation="0" />
<style
   type="text/css"
   id="style80">
	.st0{fill:#FAFAFA;}
	.st1{fill:#F0F0F0;}
	.st2{fill:#FFFFFF;}
	.st3{fill:#E24329;}
	.st4{fill:#FCA326;}
	.st5{fill:#FC6D26;}
	.st6{fill:#8C929D;}
	.st7{fill:#2E2E2E;}
	.st8{fill:none;stroke:#FCA326;stroke-width:16;stroke-linecap:round;stroke-linejoin:round;stroke-miterlimit:10;}
	.st9{fill:none;stroke:#FC6D26;stroke-width:16;stroke-linecap:round;stroke-linejoin:round;stroke-miterlimit:10;}
	.st10{fill:none;stroke:#E24329;stroke-width:16;stroke-linecap:round;stroke-linejoin:round;stroke-miterlimit:10;}
	.st11{fill:none;stroke:#F0F0F0;stroke-miterlimit:10;}
	.st12{fill:#231F20;}
	.st13{fill:none;stroke:#231F20;stroke-width:16;stroke-linecap:round;stroke-linejoin:round;stroke-miterlimit:10;}
	.st14{display:none;}
	.st15{display:inline;opacity:0.1;fill:#E828E3;}
	.st16{display:inline;}
	.st17{opacity:0.1;fill:#E828E3;}
	.st18{font-family:'SourceSansPro-Semibold';}
	.st19{font-size:24px;}
	.st20{display:inline;fill:#DB3B21;}
	.st21{display:inline;fill:#FC6D26;}
	.st22{display:inline;fill:#2E2E2E;}
	.st23{display:inline;fill:#6E49CB;}
	.st24{display:inline;fill:#380D75;}
	.st25{display:inline;fill:#FCA121;}
	.st26{opacity:0.6;fill:none;stroke:#231F20;stroke-width:2;stroke-miterlimit:10;stroke-dasharray:12,6;}
	.st27{fill:none;stroke:#444444;stroke-width:1.5339;stroke-miterlimit:10;}
</style>
<g
   id="logo_art">
	<path
   class="st12"
   d="m 576.05568,312.02631 -30.02856,-96.81437 c 0.0134,0.0436 0.0183,0.0889 0.0317,0.13237 -0.015,-0.0506 -0.0232,-0.10101 -0.0366,-0.15153 -10e-4,-0.003 -10e-4,-0.005 -10e-4,-0.009 0,-0.002 0,-0.003 0,-0.003 L 486.4092,23.056666 C 483.14831,12.935806 474.17584,6.1432816 463.88903,6.2268825 453.57228,6.2826107 444.84604,12.944514 441.65501,23.204708 L 385.07174,205.56656 H 206.53247 L 149.84271,23.192517 C 146.65501,12.941031 137.92712,6.2808736 127.61202,6.22514 c -0.0416,0 -0.0815,0 -0.12478,0 -10.15704,0 -19.1478,6.750724 -22.44364,16.984794 l -59.448212,191.951506 -0.0083,0.0244 c 0,0.002 0,0.003 0,0.005 -0.01497,0.0487 -0.02163,0.0976 -0.0366,0.14631 0.01331,-0.0436 0.0183,-0.0888 0.03161,-0.13237 L 15.443734,312.0265 c -4.53365,14.61613 0.385985,30.50018 12.245013,39.53075 L 287.92187,549.49469 c 0.0382,0.0296 0.0815,0.047 0.11979,0.0766 0.11153,0.0836 0.21961,0.16894 0.33274,0.24732 -0.10647,-0.0749 -0.20631,-0.15675 -0.31112,-0.23339 0,0 0,-0.002 -0.001,-0.002 0.0166,0.014 0.0366,0.0226 0.0549,0.0349 0.015,0.0108 0.0299,0.0174 0.0449,0.0279 10e-4,0.002 0.003,0.003 0.007,0.005 0.40262,0.2926 0.82022,0.56082 1.2528,0.80639 0.0598,0.0349 0.11314,0.0784 0.17301,0.11147 10e-4,0 10e-4,0.002 0.003,0.002 0.0366,0.0191 0.0699,0.0436 0.10647,0.0627 0.0283,0.0139 0.0582,0.0226 0.0848,0.0366 0.02,0.0108 0.0415,0.0174 0.0616,0.0261 0.0482,0.0244 0.10151,0.04 0.14973,0.0661 0.22627,0.11321 0.46418,0.20552 0.6971,0.30479 0.21795,0.094 0.42924,0.20378 0.65218,0.28564 0.0104,0.003 0.0183,0.009 0.0283,0.0122 0.0366,0.0139 0.0699,0.0331 0.10819,0.047 0.0466,0.0174 0.0915,0.0366 0.13809,0.0523 0.0183,0.005 0.0366,0.009 0.0549,0.014 0.0582,0.0191 0.12146,0.0279 0.17969,0.0453 0.0216,0.006 0.0466,0.0108 0.0699,0.0174 0.31279,0.0993 0.63721,0.17068 0.95998,0.24558 0.12644,0.0296 0.24789,0.0714 0.376,0.0958 0.0183,0.003 0.0349,0.0108 0.0549,0.0139 0.0415,0.009 0.0799,0.0244 0.12311,0.0314 0.0682,0.0121 0.13476,0.0349 0.20464,0.0453 0.0549,0.009 0.11153,0.005 0.16637,0.014 0.0104,0.002 0.0183,0 0.0283,0.002 0.003,0 0.005,0 0.008,0 0.61391,0.0923 1.23614,0.15675 1.87002,0.15675 0.003,0 0.007,0 0.0116,0 v 0 c 10e-4,0 0.003,0 0.003,0 0,0 0.001,0 0.001,0 10e-4,0 0.003,0 0.005,0 0.63554,0 1.25778,-0.0644 1.87335,-0.15675 0.001,0 0.005,0 0.007,0 0.0104,-0.002 0.02,0 0.0299,-0.002 0.0549,-0.009 0.11314,-0.005 0.16803,-0.014 0.0699,-0.0122 0.13643,-0.0331 0.20631,-0.0453 0.0416,-0.006 0.0799,-0.0227 0.12145,-0.0314 0.0183,-0.003 0.0349,-0.0108 0.0532,-0.0139 0.12976,-0.0261 0.25455,-0.068 0.38432,-0.0976 0.31777,-0.0731 0.6372,-0.14456 0.94832,-0.24209 0.0216,-0.006 0.0433,-0.009 0.0649,-0.0157 0.0616,-0.0191 0.12477,-0.0279 0.18633,-0.047 0.0183,-0.006 0.0382,-0.009 0.0565,-0.014 0.0482,-0.0157 0.0948,-0.0366 0.14141,-0.054 0.0366,-0.0139 0.0699,-0.0331 0.10647,-0.047 0.0104,-0.003 0.0183,-0.009 0.0283,-0.0122 0.23625,-0.0871 0.45919,-0.20204 0.69045,-0.30132 0.21462,-0.094 0.43423,-0.17765 0.64385,-0.28215 0.0516,-0.0261 0.10647,-0.0418 0.15639,-0.0679 0.0199,-0.0108 0.0433,-0.0174 0.0632,-0.0279 0.0283,-0.014 0.0582,-0.0227 0.0866,-0.0383 0.0382,-0.0209 0.0748,-0.0453 0.11142,-0.0644 0,0 10e-4,0 10e-4,-0.002 0.0616,-0.0331 0.11646,-0.0801 0.17801,-0.11495 0.42924,-0.24384 0.84518,-0.51031 1.24613,-0.80117 0.0317,-0.0226 0.0683,-0.04 0.10152,-0.0644 0.008,-0.006 0.0183,-0.0108 0.0266,-0.0174 0.0382,-0.0296 0.0832,-0.0487 0.12145,-0.0784 L 563.81732,351.55183 c 11.85237,-9.02535 16.77201,-24.9094 12.23836,-39.52552 z M 464.05374,41.055113 515.09681,205.56656 H 413.01067 Z M 506.15762,233.38456 485.32945,261.32273 331.7111,467.37482 404.3776,233.38456 Z M 283.09706,542.54019 c 0,0 0,0 0,0 0.0134,0.0418 0.035,0.0801 0.0482,0.12365 -0.0134,-0.0436 -0.0349,-0.0819 -0.0482,-0.12365 z M 259.79161,467.38875 85.439931,233.38456 v 0 H 187.2266 Z M 127.45064,41.053372 178.58854,205.56656 H 76.502404 Z M 43.314423,329.05639 c -2.522207,-1.92107 -3.567027,-5.3121 -2.600402,-8.42622 L 63.117736,248.65554 227.27744,468.98063 Z M 287.46434,549.1272 c -0.0516,-0.0436 -0.10152,-0.0906 -0.15139,-0.13585 -0.0104,-0.009 -0.0199,-0.0209 -0.0317,-0.0296 -0.0998,-0.0871 -0.19799,-0.17591 -0.29448,-0.26648 -0.18966,-0.17242 -0.376,-0.34833 -0.55402,-0.53295 0.015,0.0139 0.0317,0.0261 0.0466,0.04 0.0199,0.0191 0.0416,0.0349 0.0616,0.054 0.381,0.38143 0.78195,0.74021 1.20121,1.07113 0.005,0.003 0.008,0.009 0.0134,0.0122 0.02,0.0157 0.0366,0.0348 0.0565,0.0523 -0.11475,-0.0871 -0.23458,-0.17069 -0.34772,-0.26473 z m 8.27703,-55.90248 -42.69949,-137.69491 -37.87635,-122.14525 h 161.26982 z m 8.73955,55.47054 c -0.0998,0.0906 -0.19632,0.18113 -0.2978,0.26822 -0.0116,0.0108 -0.0232,0.0227 -0.035,0.0331 -0.0516,0.0436 -0.0998,0.0906 -0.14974,0.13411 -0.10981,0.0923 -0.22959,0.1759 -0.34439,0.26473 0.0199,-0.0157 0.0366,-0.0366 0.0582,-0.0506 0.003,-0.003 0.007,-0.006 0.0104,-0.0107 0.41925,-0.33092 0.81855,-0.68622 1.19621,-1.06765 0.015,-0.0157 0.0333,-0.0279 0.0482,-0.0418 0.02,-0.0191 0.0416,-0.0349 0.0598,-0.054 -0.17636,0.1794 -0.36103,0.35356 -0.54571,0.52424 z m 243.7107,-219.6441 -183.9364,139.88593 164.2146,-220.26413 22.31388,71.94328 c 0.96829,3.12805 -0.0749,6.51908 -2.59208,8.43492 z"
   id="path82"
   style="fill:#555555;fill-opacity:1;stroke-width:1.70226" />
</g>
<g
   id="spacing_guides"
   class="st14">
	<path
   id="path40_116_"
   sketch:type="MSShapeGroup"
   class="st15"
   d="M0,0.5v124h586V0.5H0L0,0.5z" />
	<path
   id="path40_115_"
   sketch:type="MSShapeGroup"
   class="st15"
   d="M0,435.5v124h586v-124H0L0,435.5z" />
	<path
   id="path40_114_"
   sketch:type="MSShapeGroup"
   class="st15"
   d="M462.2,560h124V0h-124V560L462.2,560z" />
	<g
   class="st16"
   id="g90">
		<text
   transform="matrix(1 0 0 1 511.2881 283.332)"
   class="st18 st19"
   id="text88">1x</text>
	</g>
	<g
   class="st16"
   id="g94">
		<text
   transform="matrix(1 0 0 1 281.2881 500.9979)"
   class="st18 st19"
   id="text92">1x</text>
	</g>
	<g
   class="st16"
   id="g98">
		<text
   transform="matrix(1 0 0 1 281.2881 65.9981)"
   class="st18 st19"
   id="text96">1x</text>
	</g>
	<path
   id="path40_109_"
   sketch:type="MSShapeGroup"
   class="st15"
   d="M0,560h124V0H0V560L0,560z" />
	<g
   class="st16"
   id="g103">
		<text
   transform="matrix(1 0 0 1 51.2881 283.332)"
   class="st18 st19"
   id="text101">1x</text>
	</g>
</g>
<path
   style="fill:#555555;fill-opacity:0;stroke-width:0.750336"
   d="m 268.96391,326.95219 -23.66092,-72.9636 23.84851,-0.19798 c 13.11667,-0.10889 34.60781,-0.10889 47.75807,0 l 23.90958,0.19798 -23.71499,72.97013 c -13.04325,40.13358 -23.88697,72.9672 -24.09716,72.96361 -0.21019,-0.004 -11.02958,-32.84015 -24.04309,-72.97014 z"
   id="path939" /><path
   style="fill:#555555;fill-opacity:0;stroke-width:0.750336"
   d="m 289.99866,434.95193 c -4.16387,-2.18376 -161.04416,-116.87 -162.29182,-118.6423 -2.09252,-2.97241 -3.53234,-7.76026 -3.53234,-11.74614 0,-3.52057 3.85628,-15.68506 47.31202,-149.24403 8.81063,-27.07901 9.33667,-28.14165 15.26349,-30.83325 3.89605,-1.76934 6.76617,-1.76818 10.66931,0.004 6.06394,2.75375 4.55085,-1.12231 29.16958,74.72358 5.62603,17.33276 10.74178,33.11794 11.36834,35.07819 l 1.1392,3.5641 h 53.90159 53.90158 l 3.77239,-11.44262 c 2.07481,-6.29344 9.90249,-30.35108 17.39484,-53.46141 9.20604,-28.39625 14.24077,-42.8383 15.52964,-44.54655 2.46744,-3.27031 7.74747,-5.64229 11.4533,-5.14524 4.3287,0.5806 8.21558,2.77391 10.14882,5.72684 0.98694,1.50749 13.86077,39.95224 29.19613,87.18753 23.5694,72.59742 27.42845,85.11375 27.4143,88.91476 -0.0185,4.95744 -1.62607,9.09982 -4.96781,12.80077 -2.11391,2.34115 -156.82358,114.97113 -160.71258,117.00015 -2.49206,1.3002 -3.74389,1.31272 -6.12998,0.0613 z m 28.10811,-108.24484 c 13.01578,-40.06563 23.66504,-73.07101 23.66504,-73.3453 0,-0.27428 -21.97006,-0.4987 -48.82238,-0.4987 h -48.82237 l 0.51768,1.68825 c 2.50682,8.17517 47.86021,147.42298 48.19318,147.96674 0.24026,0.39236 0.6994,-0.11412 1.02032,-1.1255 0.32092,-1.01139 11.23276,-34.61986 24.24853,-74.68549 z m -70.32179,55.77647 c -61.0673,-78.40423 -93.87596,-120.28734 -94.37142,-120.47336 -0.68465,-0.25705 -14.23235,40.8446 -14.23235,43.17879 0,0.80612 0.5998,2.00849 1.3329,2.67193 2.50772,2.26946 110.84098,80.80766 111.4673,80.81029 0.34376,0.002 -1.54463,-2.78301 -4.19643,-6.18765 z m 140.50764,-32.70333 c 28.68157,-20.81113 53.58334,-38.9983 55.33725,-40.41594 2.01056,-1.62508 3.18892,-3.18969 3.18892,-4.23422 0,-2.23984 -13.2011,-42.79731 -13.99926,-43.00962 -0.62704,-0.16679 -97.88998,124.19491 -98.45261,125.88283 -0.41828,1.25483 -3.17729,3.21044 53.9257,-38.22305 z m -116.51501,37.20534 c -0.18593,-0.51586 -10.07819,-30.90445 -21.9828,-67.5302 l -21.64473,-66.59228 h -31.06992 c -30.92485,0 -31.0651,0.007 -30.04047,1.50247 3.40751,4.97328 103.93942,133.47814 104.45069,133.51404 0.34391,0.0242 0.47316,-0.37817 0.28723,-0.89403 z m 95.50561,-65.99309 c 28.68158,-36.77805 52.26087,-67.15273 52.39843,-67.49929 0.13757,-0.34656 -13.70612,-0.62625 -30.76376,-0.62154 l -31.01386,0.009 -18.69491,57.57968 c -24.46193,75.3419 -25.13667,77.46889 -24.56348,77.43267 0.2691,-0.017 23.956,-30.12205 52.63758,-66.90009 z m -144.2619,-84.07402 c -0.30028,-0.78665 -25.95644,-79.63388 -29.56434,-90.85799 -0.64202,-1.99731 -1.43617,-3.34792 -1.76478,-3.00134 -0.55842,0.58895 -30.75126,93.1586 -30.75126,94.28174 0,0.28352 14.04864,0.51551 31.2192,0.51551 24.66609,0 31.14406,-0.19688 30.86118,-0.93792 z m 202.0633,0.37516 c 0.0503,-1.1064 -30.42273,-94.70531 -30.83716,-94.71746 -0.48379,-0.0142 -30.75295,92.91154 -30.73058,94.3423 0.0115,0.73485 6.67546,0.93792 30.77842,0.93792 16.92007,0 30.77526,-0.25324 30.78932,-0.56276 z"
   id="path941" /><path
   style="fill:#555555;fill-opacity:0;stroke-width:0.750336"
   d="m 289.99866,434.95193 c -4.16387,-2.18376 -161.04416,-116.87 -162.29182,-118.6423 -2.09252,-2.97241 -3.53234,-7.76026 -3.53234,-11.74614 0,-3.52057 3.85628,-15.68506 47.31202,-149.24403 8.81063,-27.07901 9.33667,-28.14165 15.26349,-30.83325 3.89605,-1.76934 6.76617,-1.76818 10.66931,0.004 6.06394,2.75375 4.55085,-1.12231 29.16958,74.72358 5.62603,17.33276 10.74178,33.11794 11.36834,35.07819 l 1.1392,3.5641 h 53.90159 53.90158 l 3.77239,-11.44262 c 2.07481,-6.29344 9.90249,-30.35108 17.39484,-53.46141 9.20604,-28.39625 14.24077,-42.8383 15.52964,-44.54655 2.46744,-3.27031 7.74747,-5.64229 11.4533,-5.14524 4.3287,0.5806 8.21558,2.77391 10.14882,5.72684 0.98694,1.50749 13.86077,39.95224 29.19613,87.18753 23.5694,72.59742 27.42845,85.11375 27.4143,88.91476 -0.0185,4.95744 -1.62607,9.09982 -4.96781,12.80077 -2.11391,2.34115 -156.82358,114.97113 -160.71258,117.00015 -2.49206,1.3002 -3.74389,1.31272 -6.12998,0.0613 z m 28.10811,-108.24484 c 13.01578,-40.06563 23.66504,-73.07101 23.66504,-73.3453 0,-0.27428 -21.97006,-0.4987 -48.82238,-0.4987 h -48.82237 l 0.51768,1.68825 c 2.50682,8.17517 47.86021,147.42298 48.19318,147.96674 0.24026,0.39236 0.6994,-0.11412 1.02032,-1.1255 0.32092,-1.01139 11.23276,-34.61986 24.24853,-74.68549 z m -70.32179,55.77647 c -61.0673,-78.40423 -93.87596,-120.28734 -94.37142,-120.47336 -0.68465,-0.25705 -14.23235,40.8446 -14.23235,43.17879 0,0.80612 0.5998,2.00849 1.3329,2.67193 2.50772,2.26946 110.84098,80.80766 111.4673,80.81029 0.34376,0.002 -1.54463,-2.78301 -4.19643,-6.18765 z m 140.50764,-32.70333 c 28.68157,-20.81113 53.58334,-38.9983 55.33725,-40.41594 2.01056,-1.62508 3.18892,-3.18969 3.18892,-4.23422 0,-2.23984 -13.2011,-42.79731 -13.99926,-43.00962 -0.62704,-0.16679 -97.88998,124.19491 -98.45261,125.88283 -0.41828,1.25483 -3.17729,3.21044 53.9257,-38.22305 z m -116.51501,37.20534 c -0.18593,-0.51586 -10.07819,-30.90445 -21.9828,-67.5302 l -21.64473,-66.59228 h -31.06992 c -30.92485,0 -31.0651,0.007 -30.04047,1.50247 3.40751,4.97328 103.93942,133.47814 104.45069,133.51404 0.34391,0.0242 0.47316,-0.37817 0.28723,-0.89403 z m 95.50561,-65.99309 c 28.68158,-36.77805 52.26087,-67.15273 52.39843,-67.49929 0.13757,-0.34656 -13.70612,-0.62625 -30.76376,-0.62154 l -31.01386,0.009 -18.69491,57.57968 c -24.46193,75.3419 -25.13667,77.46889 -24.56348,77.43267 0.2691,-0.017 23.956,-30.12205 52.63758,-66.90009 z m -144.2619,-84.07402 c -0.30028,-0.78665 -25.95644,-79.63388 -29.56434,-90.85799 -0.64202,-1.99731 -1.43617,-3.34792 -1.76478,-3.00134 -0.55842,0.58895 -30.75126,93.1586 -30.75126,94.28174 0,0.28352 14.04864,0.51551 31.2192,0.51551 24.66609,0 31.14406,-0.19688 30.86118,-0.93792 z m 202.0633,0.37516 c 0.0503,-1.1064 -30.42273,-94.70531 -30.83716,-94.71746 -0.48379,-0.0142 -30.75295,92.91154 -30.73058,94.3423 0.0115,0.73485 6.67546,0.93792 30.77842,0.93792 16.92007,0 30.77526,-0.25324 30.78932,-0.56276 z"
   id="path943" /><path
   style="fill:#555555;fill-opacity:0;stroke-width:0.750336"
   d="m 289.99866,434.95193 c -4.16387,-2.18376 -161.04416,-116.87 -162.29182,-118.6423 -2.09252,-2.97241 -3.53234,-7.76026 -3.53234,-11.74614 0,-3.52057 3.85628,-15.68506 47.31202,-149.24403 8.81063,-27.07901 9.33667,-28.14165 15.26349,-30.83325 3.89605,-1.76934 6.76617,-1.76818 10.66931,0.004 6.06394,2.75375 4.55085,-1.12231 29.16958,74.72358 5.62603,17.33276 10.74178,33.11794 11.36834,35.07819 l 1.1392,3.5641 h 53.90159 53.90158 l 3.77239,-11.44262 c 2.07481,-6.29344 9.90249,-30.35108 17.39484,-53.46141 9.20604,-28.39625 14.24077,-42.8383 15.52964,-44.54655 2.46744,-3.27031 7.74747,-5.64229 11.4533,-5.14524 4.3287,0.5806 8.21558,2.77391 10.14882,5.72684 0.98694,1.50749 13.86077,39.95224 29.19613,87.18753 23.5694,72.59742 27.42845,85.11375 27.4143,88.91476 -0.0185,4.95744 -1.62607,9.09982 -4.96781,12.80077 -2.11391,2.34115 -156.82358,114.97113 -160.71258,117.00015 -2.49206,1.3002 -3.74389,1.31272 -6.12998,0.0613 z m 28.10811,-108.24484 c 13.01578,-40.06563 23.66504,-73.07101 23.66504,-73.3453 0,-0.27428 -21.97006,-0.4987 -48.82238,-0.4987 h -48.82237 l 0.51768,1.68825 c 2.50682,8.17517 47.86021,147.42298 48.19318,147.96674 0.24026,0.39236 0.6994,-0.11412 1.02032,-1.1255 0.32092,-1.01139 11.23276,-34.61986 24.24853,-74.68549 z m -70.32179,55.77647 c -61.0673,-78.40423 -93.87596,-120.28734 -94.37142,-120.47336 -0.68465,-0.25705 -14.23235,40.8446 -14.23235,43.17879 0,0.80612 0.5998,2.00849 1.3329,2.67193 2.50772,2.26946 110.84098,80.80766 111.4673,80.81029 0.34376,0.002 -1.54463,-2.78301 -4.19643,-6.18765 z m 140.50764,-32.70333 c 28.68157,-20.81113 53.58334,-38.9983 55.33725,-40.41594 2.01056,-1.62508 3.18892,-3.18969 3.18892,-4.23422 0,-2.23984 -13.2011,-42.79731 -13.99926,-43.00962 -0.62704,-0.16679 -97.88998,124.19491 -98.45261,125.88283 -0.41828,1.25483 -3.17729,3.21044 53.9257,-38.22305 z m -116.51501,37.20534 c -0.18593,-0.51586 -10.07819,-30.90445 -21.9828,-67.5302 l -21.64473,-66.59228 h -31.06992 c -30.92485,0 -31.0651,0.007 -30.04047,1.50247 3.40751,4.97328 103.93942,133.47814 104.45069,133.51404 0.34391,0.0242 0.47316,-0.37817 0.28723,-0.89403 z m 95.50561,-65.99309 c 28.68158,-36.77805 52.26087,-67.15273 52.39843,-67.49929 0.13757,-0.34656 -13.70612,-0.62625 -30.76376,-0.62154 l -31.01386,0.009 -18.69491,57.57968 c -24.46193,75.3419 -25.13667,77.46889 -24.56348,77.43267 0.2691,-0.017 23.956,-30.12205 52.63758,-66.90009 z m -144.2619,-84.07402 c -0.30028,-0.78665 -25.95644,-79.63388 -29.56434,-90.85799 -0.64202,-1.99731 -1.43617,-3.34792 -1.76478,-3.00134 -0.55842,0.58895 -30.75126,93.1586 -30.75126,94.28174 0,0.28352 14.04864,0.51551 31.2192,0.51551 24.66609,0 31.14406,-0.19688 30.86118,-0.93792 z m 202.0633,0.37516 c 0.0503,-1.1064 -30.42273,-94.70531 -30.83716,-94.71746 -0.48379,-0.0142 -30.75295,92.91154 -30.73058,94.3423 0.0115,0.73485 6.67546,0.93792 30.77842,0.93792 16.92007,0 30.77526,-0.25324 30.78932,-0.56276 z"
   id="path945" /><path
   style="fill:#555555;fill-opacity:0;stroke-width:0.750336"
   d="m 289.99866,434.95193 c -4.16387,-2.18376 -161.04416,-116.87 -162.29182,-118.6423 -2.09252,-2.97241 -3.53234,-7.76026 -3.53234,-11.74614 0,-3.52057 3.85628,-15.68506 47.31202,-149.24403 8.81063,-27.07901 9.33667,-28.14165 15.26349,-30.83325 3.89605,-1.76934 6.76617,-1.76818 10.66931,0.004 6.06394,2.75375 4.55085,-1.12231 29.16958,74.72358 5.62603,17.33276 10.74178,33.11794 11.36834,35.07819 l 1.1392,3.5641 h 53.90159 53.90158 l 3.77239,-11.44262 c 2.07481,-6.29344 9.90249,-30.35108 17.39484,-53.46141 9.20604,-28.39625 14.24077,-42.8383 15.52964,-44.54655 2.46744,-3.27031 7.74747,-5.64229 11.4533,-5.14524 4.3287,0.5806 8.21558,2.77391 10.14882,5.72684 0.98694,1.50749 13.86077,39.95224 29.19613,87.18753 23.5694,72.59742 27.42845,85.11375 27.4143,88.91476 -0.0185,4.95744 -1.62607,9.09982 -4.96781,12.80077 -2.11391,2.34115 -156.82358,114.97113 -160.71258,117.00015 -2.49206,1.3002 -3.74389,1.31272 -6.12998,0.0613 z m 28.10811,-108.24484 c 13.01578,-40.06563 23.66504,-73.07101 23.66504,-73.3453 0,-0.27428 -21.97006,-0.4987 -48.82238,-0.4987 h -48.82237 l 0.51768,1.68825 c 2.50682,8.17517 47.86021,147.42298 48.19318,147.96674 0.24026,0.39236 0.6994,-0.11412 1.02032,-1.1255 0.32092,-1.01139 11.23276,-34.61986 24.24853,-74.68549 z m -70.32179,55.77647 c -61.0673,-78.40423 -93.87596,-120.28734 -94.37142,-120.47336 -0.68465,-0.25705 -14.23235,40.8446 -14.23235,43.17879 0,0.80612 0.5998,2.00849 1.3329,2.67193 2.50772,2.26946 110.84098,80.80766 111.4673,80.81029 0.34376,0.002 -1.54463,-2.78301 -4.19643,-6.18765 z m 140.50764,-32.70333 c 28.68157,-20.81113 53.58334,-38.9983 55.33725,-40.41594 2.01056,-1.62508 3.18892,-3.18969 3.18892,-4.23422 0,-2.23984 -13.2011,-42.79731 -13.99926,-43.00962 -0.62704,-0.16679 -97.88998,124.19491 -98.45261,125.88283 -0.41828,1.25483 -3.17729,3.21044 53.9257,-38.22305 z m -116.51501,37.20534 c -0.18593,-0.51586 -10.07819,-30.90445 -21.9828,-67.5302 l -21.64473,-66.59228 h -31.06992 c -30.92485,0 -31.0651,0.007 -30.04047,1.50247 3.40751,4.97328 103.93942,133.47814 104.45069,133.51404 0.34391,0.0242 0.47316,-0.37817 0.28723,-0.89403 z m 95.50561,-65.99309 c 28.68158,-36.77805 52.26087,-67.15273 52.39843,-67.49929 0.13757,-0.34656 -13.70612,-0.62625 -30.76376,-0.62154 l -31.01386,0.009 -18.69491,57.57968 c -24.46193,75.3419 -25.13667,77.46889 -24.56348,77.43267 0.2691,-0.017 23.956,-30.12205 52.63758,-66.90009 z m -144.2619,-84.07402 c -0.30028,-0.78665 -25.95644,-79.63388 -29.56434,-90.85799 -0.64202,-1.99731 -1.43617,-3.34792 -1.76478,-3.00134 -0.55842,0.58895 -30.75126,93.1586 -30.75126,94.28174 0,0.28352 14.04864,0.51551 31.2192,0.51551 24.66609,0 31.14406,-0.19688 30.86118,-0.93792 z m 202.0633,0.37516 c 0.0503,-1.1064 -30.42273,-94.70531 -30.83716,-94.71746 -0.48379,-0.0142 -30.75295,92.91154 -30.73058,94.3423 0.0115,0.73485 6.67546,0.93792 30.77842,0.93792 16.92007,0 30.77526,-0.25324 30.78932,-0.56276 z"
   id="path947" /></svg>
